<mxfile host="app.diagrams.net" modified="2023-11-24T16:00:42.807Z" agent="Mozilla/5.0 (Macintosh; Intel Mac OS X 10_15_7) AppleWebKit/537.36 (KHTML, like Gecko) Chrome/119.0.0.0 Safari/537.36" etag="ZNWQ5xlwcoNZoV5pyo52" version="22.1.3" type="device">
  <diagram name="Page-1" id="ajtUK3qtO0a6eo6GPTTo">
    <mxGraphModel dx="1853" dy="1856" grid="1" gridSize="10" guides="1" tooltips="1" connect="1" arrows="1" fold="1" page="1" pageScale="1" pageWidth="827" pageHeight="1169" math="0" shadow="0">
      <root>
        <mxCell id="0" />
        <mxCell id="1" parent="0" />
        <mxCell id="0UDz0r6JHUDUcFvl2aUi-4" style="edgeStyle=orthogonalEdgeStyle;rounded=0;orthogonalLoop=1;jettySize=auto;html=1;entryX=0;entryY=0.5;entryDx=0;entryDy=0;" edge="1" parent="1" source="0UDz0r6JHUDUcFvl2aUi-1" target="0UDz0r6JHUDUcFvl2aUi-3">
          <mxGeometry relative="1" as="geometry" />
        </mxCell>
        <mxCell id="0UDz0r6JHUDUcFvl2aUi-5" style="edgeStyle=orthogonalEdgeStyle;rounded=0;orthogonalLoop=1;jettySize=auto;html=1;" edge="1" parent="1" source="0UDz0r6JHUDUcFvl2aUi-1">
          <mxGeometry relative="1" as="geometry">
            <mxPoint x="80" y="-90" as="targetPoint" />
            <Array as="points">
              <mxPoint x="5" y="180" />
              <mxPoint x="5" y="-90" />
              <mxPoint x="80" y="-90" />
            </Array>
          </mxGeometry>
        </mxCell>
        <mxCell id="0UDz0r6JHUDUcFvl2aUi-1" value="Client" style="swimlane;whiteSpace=wrap;html=1;" vertex="1" parent="1">
          <mxGeometry x="-270" y="80" width="200" height="200" as="geometry" />
        </mxCell>
        <mxCell id="0UDz0r6JHUDUcFvl2aUi-8" style="edgeStyle=orthogonalEdgeStyle;rounded=0;orthogonalLoop=1;jettySize=auto;html=1;" edge="1" parent="1" source="0UDz0r6JHUDUcFvl2aUi-2" target="0UDz0r6JHUDUcFvl2aUi-7">
          <mxGeometry relative="1" as="geometry" />
        </mxCell>
        <mxCell id="0UDz0r6JHUDUcFvl2aUi-2" value="AnanlysisTool" style="swimlane;whiteSpace=wrap;html=1;" vertex="1" parent="1">
          <mxGeometry x="80" y="40" width="200" height="200" as="geometry" />
        </mxCell>
        <mxCell id="0UDz0r6JHUDUcFvl2aUi-3" value="XMLData" style="swimlane;whiteSpace=wrap;html=1;" vertex="1" parent="1">
          <mxGeometry x="60" y="350" width="200" height="200" as="geometry" />
        </mxCell>
        <mxCell id="0UDz0r6JHUDUcFvl2aUi-6" value="has-a" style="text;html=1;strokeColor=none;fillColor=none;align=center;verticalAlign=middle;whiteSpace=wrap;rounded=0;" vertex="1" parent="1">
          <mxGeometry x="-60" y="150" width="60" height="30" as="geometry" />
        </mxCell>
        <mxCell id="0UDz0r6JHUDUcFvl2aUi-7" value="JSONData" style="swimlane;whiteSpace=wrap;html=1;" vertex="1" parent="1">
          <mxGeometry x="320" y="350" width="200" height="200" as="geometry" />
        </mxCell>
        <mxCell id="0UDz0r6JHUDUcFvl2aUi-9" value="&amp;lt;&amp;lt;Uses&amp;gt;&amp;gt;" style="text;html=1;strokeColor=none;fillColor=none;align=center;verticalAlign=middle;whiteSpace=wrap;rounded=0;" vertex="1" parent="1">
          <mxGeometry x="370" y="170" width="60" height="30" as="geometry" />
        </mxCell>
        <mxCell id="0UDz0r6JHUDUcFvl2aUi-10" value="ToolAdapter" style="swimlane;whiteSpace=wrap;html=1;" vertex="1" parent="1">
          <mxGeometry x="80" y="-250" width="200" height="200" as="geometry" />
        </mxCell>
        <mxCell id="0UDz0r6JHUDUcFvl2aUi-13" value="Client has a AnalysisTool &amp;amp; XMLData , and these 2 are incompatible to each other." style="text;html=1;strokeColor=none;fillColor=none;align=center;verticalAlign=middle;whiteSpace=wrap;rounded=0;" vertex="1" parent="1">
          <mxGeometry x="-270" y="-10" width="180" height="30" as="geometry" />
        </mxCell>
      </root>
    </mxGraphModel>
  </diagram>
</mxfile>
